<svg width="62" height="62" viewBox="0 0 62 62" fill="none" xmlns="http://www.w3.org/2000/svg">
<circle cx="30.8378" cy="30.8378" r="30.8378" fill="#9B7BDD"/>
<path d="M27.751 36.5952C27.751 34.8179 27.9668 33.4023 28.3984 32.3486C28.8301 31.2949 29.6172 30.2603 30.7598 29.2446C31.915 28.2163 32.6831 27.3848 33.064 26.75C33.4448 26.1025 33.6353 25.4233 33.6353 24.7124C33.6353 22.5669 32.645 21.4941 30.6646 21.4941C29.7251 21.4941 28.9697 21.7861 28.3984 22.3701C27.8398 22.9414 27.5479 23.7349 27.5225 24.7505H22C22.0254 22.3257 22.8062 20.4277 24.3423 19.0566C25.8911 17.6855 27.9985 17 30.6646 17C33.356 17 35.4443 17.6538 36.9297 18.9614C38.415 20.2563 39.1577 22.0908 39.1577 24.4648C39.1577 25.5439 38.9165 26.5659 38.4341 27.5308C37.9517 28.4829 37.1074 29.543 35.9014 30.7109L34.3589 32.1772C33.394 33.104 32.8418 34.1895 32.7021 35.4336L32.626 36.5952H27.751ZM27.1987 42.4414C27.1987 41.5908 27.4844 40.8926 28.0557 40.3467C28.6396 39.7881 29.3823 39.5088 30.2837 39.5088C31.1851 39.5088 31.9214 39.7881 32.4927 40.3467C33.0767 40.8926 33.3687 41.5908 33.3687 42.4414C33.3687 43.2793 33.083 43.9712 32.5117 44.5171C31.9531 45.063 31.2104 45.3359 30.2837 45.3359C29.3569 45.3359 28.6079 45.063 28.0366 44.5171C27.478 43.9712 27.1987 43.2793 27.1987 42.4414Z" fill="white"/>
</svg>
