<?xml version="1.0" encoding="utf-8"?>
<!-- Generator: Adobe Illustrator 24.1.0, SVG Export Plug-In . SVG Version: 6.00 Build 0)  -->
<svg version="1.1" id="Layer_1" xmlns="http://www.w3.org/2000/svg" xmlns:xlink="http://www.w3.org/1999/xlink" x="0px" y="0px"
	 viewBox="0 0 62 62" style="enable-background:new 0 0 62 62;" xml:space="preserve">
<style type="text/css">
	.st0{fill:none;}
	.st1{fill:#9B7BDD;}
</style>
<circle class="st0" cx="31" cy="31" r="31"/>
<path class="st1" d="M19.2,19.2L19.2,19.2c0.7-0.7,1.9-0.7,2.7,0l21.3,21.3c0.7,0.7,0.7,1.9,0,2.7l0,0c-0.7,0.7-1.9,0.7-2.7,0
	L19.2,21.8C18.4,21.1,18.4,19.9,19.2,19.2z"/>
<path class="st1" d="M19.2,43.2L19.2,43.2c-0.7-0.7-0.7-1.9,0-2.7l21.3-21.3c0.7-0.7,1.9-0.7,2.7,0l0,0c0.7,0.7,0.7,1.9,0,2.7
	L21.9,43.2C21.2,44,20,44,19.2,43.2z"/>
</svg>
